<svg width="54" height="15" viewBox="0 0 54 15" fill="none" xmlns="http://www.w3.org/2000/svg">
<path d="M0.582031 15V0.371094H4.52734C6.63672 0.371094 8.29688 0.996094 9.50781 2.24609C10.7188 3.48307 11.3242 5.29948 11.3242 7.69531C11.3242 9.97396 10.7383 11.7643 9.56641 13.0664C8.39453 14.3555 6.70182 15 4.48828 15H0.582031ZM2.14453 13.6719H4.25391C5.94661 13.6719 7.28125 13.1966 8.25781 12.2461C9.23438 11.2826 9.72266 9.76562 9.72266 7.69531C9.72266 5.59896 9.23438 4.07552 8.25781 3.125C7.28125 2.17448 5.95964 1.69922 4.29297 1.69922H2.14453V13.6719ZM15.7969 9.53125H21.3047L19.5859 4.60938C19.4818 4.3099 19.3125 3.83464 19.0781 3.18359C18.8568 2.51953 18.7005 2.05729 18.6094 1.79688H18.4922C17.9453 3.39844 17.6263 4.33594 17.5352 4.60938L15.7969 9.53125ZM12.125 15L17.5938 0.371094H19.5078L24.9766 15H23.2578L21.7734 10.7812H15.3281L13.8438 15H12.125ZM26.9297 15V0.371094H28.9609L32.1641 8.24219C32.3724 8.78906 32.6523 9.53776 33.0039 10.4883C33.3685 11.4258 33.5573 11.9141 33.5703 11.9531H33.6484C33.7266 11.7578 34.2018 10.5208 35.0742 8.24219L38.2578 0.371094H40.3281V15H38.7656V6.73828C38.7656 5.68359 38.8307 4.20573 38.9609 2.30469H38.8828L38.1406 4.25781L34.3125 13.9062H32.9453L29.1172 4.25781L28.3359 2.30469H28.2578C28.4141 4.40104 28.4922 5.87891 28.4922 6.73828V15H26.9297ZM44.3711 15V0.371094H53.5117V1.69922H45.9336V6.77734H52.7695V8.08594H45.9336V13.6719H53.668V15H44.3711Z" fill="#0A3641"/>
</svg>
