<svg width="34" height="32" viewBox="0 0 34 32" fill="none" xmlns="http://www.w3.org/2000/svg">
<path d="M30.8601 3.55546C30.024 2.71934 29.0313 2.05617 27.9388 1.60387C26.8462 1.15157 25.6753 0.91899 24.4928 0.919434C23.3103 0.919878 22.1395 1.15333 21.0473 1.60646C19.9551 2.05958 18.9629 2.72349 18.1274 3.56024L17.0368 4.66415L15.9553 3.56263L15.9482 3.5556C15.1125 2.71987 14.1204 2.05693 13.0284 1.60463C11.9365 1.15233 10.7662 0.919541 9.58426 0.919541C8.40236 0.919541 7.23203 1.15233 6.14009 1.60463C5.04816 2.05693 4.056 2.71987 3.22027 3.5556L2.73442 4.04146C1.0466 5.72929 0.0983887 8.01847 0.0983887 10.4054C0.0983887 12.7924 1.0466 15.0815 2.73442 16.7694L15.5575 29.5923L17.0056 31.1095L17.0401 31.0749L17.0776 31.1124L18.4344 29.6809L31.346 16.7692C33.0313 15.08 33.9777 12.7913 33.9777 10.4052C33.9777 8.0191 33.0313 5.73042 31.346 4.04125L30.8601 3.55546ZM29.7547 15.1782L17.0401 27.893L4.32531 15.1782C3.05945 13.9123 2.34829 12.1954 2.34829 10.4052C2.34829 8.61503 3.05945 6.89815 4.32531 5.63228L4.81124 5.14642C6.07648 3.88118 7.79233 3.17008 9.58165 3.16941C11.371 3.16874 13.0874 3.87855 14.3536 5.14284L17.032 7.87005L19.7231 5.14642C20.3499 4.51962 21.094 4.02242 21.913 3.68319C22.7319 3.34397 23.6097 3.16938 24.4961 3.16938C25.3825 3.16938 26.2603 3.34397 27.0792 3.68319C27.8982 4.02242 28.6423 4.51962 29.2691 5.14642L29.7549 5.63221C31.0189 6.89912 31.7287 8.61567 31.7287 10.4053C31.7286 12.1949 31.0187 13.9114 29.7547 15.1782Z" fill="#0A3641"/>
</svg>
