<svg width="32" height="36" viewBox="0 0 32 36" fill="none" xmlns="http://www.w3.org/2000/svg">
<path d="M16 2.25C17.4918 2.25 18.9226 2.84263 19.9775 3.89752C21.0324 4.95242 21.625 6.38316 21.625 7.875V9H10.375V7.875C10.375 6.38316 10.9676 4.95242 12.0225 3.89752C13.0774 2.84263 14.5082 2.25 16 2.25ZM23.875 9V7.875C23.875 5.78642 23.0453 3.78338 21.5685 2.30653C20.0916 0.829685 18.0886 0 16 0C13.9114 0 11.9084 0.829685 10.4315 2.30653C8.95469 3.78338 8.125 5.78642 8.125 7.875V9H0.25V31.5C0.25 32.6935 0.724106 33.8381 1.56802 34.682C2.41193 35.5259 3.55653 36 4.75 36H27.25C28.4435 36 29.5881 35.5259 30.432 34.682C31.2759 33.8381 31.75 32.6935 31.75 31.5V9H23.875ZM2.5 11.25H29.5V31.5C29.5 32.0967 29.2629 32.669 28.841 33.091C28.419 33.5129 27.8467 33.75 27.25 33.75H4.75C4.15326 33.75 3.58097 33.5129 3.15901 33.091C2.73705 32.669 2.5 32.0967 2.5 31.5V11.25Z" fill="#0A3641"/>
</svg>
